<?xml version="1.0" encoding="utf-8"?>
<!-- Generator: Adobe Illustrator 21.0.0, SVG Export Plug-In . SVG Version: 6.00 Build 0)  -->
<svg version="1.1" id="Layer_1" xmlns="http://www.w3.org/2000/svg" xmlns:xlink="http://www.w3.org/1999/xlink" x="0px" y="0px"
	 viewBox="0 0 163.7 189.3" style="enable-background:new 0 0 163.7 189.3;" xml:space="preserve">
<style type="text/css">
	.st0{fill:none;stroke:#FFFFFF;stroke-width:3;stroke-miterlimit:10;}
	.st1{fill:none;stroke:#FFFFFF;stroke-width:4;stroke-miterlimit:10;}
</style>
<title>logoMore</title>
<path class="st0" d="M-185.8,160.5h117.2c6.6,0,12-5.4,12-12V96c0-6.6-5.4-12-12-12h-117.2c-6.6,0-12,5.4-12,12v52.5
	C-197.8,155.1-192.4,160.5-185.8,160.5z"/>
<g>
	<path class="st1" d="M140.4,100.5h-19.2c-8.2,13.1-22.8,21.8-39.4,21.8s-31.2-8.7-39.4-21.8H23.2c-6.6,0-12,5.4-12,12v52.5
		c0,6.6,5.4,12,12,12h117.2c6.6,0,12-5.4,12-12v-52.5C152.4,105.9,147,100.5,140.4,100.5z"/>
</g>
<circle class="st1" cx="81.8" cy="60.3" r="46.5"/>
</svg>
